<svg xmlns="http://www.w3.org/2000/svg" xmlns:xlink="http://www.w3.org/1999/xlink" width="500" zoomAndPan="magnify" viewBox="0 0 375 374.999991" height="500" preserveAspectRatio="xMidYMid meet" version="1.0"><defs><g/><clipPath id="f9d70b9efd"><path d="M 90.410156 162.042969 L 139.910156 162.042969 L 139.910156 207 L 90.410156 207 Z M 90.410156 162.042969 " clip-rule="nonzero"/></clipPath></defs><g fill="#ffe6e8" fill-opacity="1"><g transform="translate(139.894464, 195.621638)"><g><path d="M 2.375 0 L 2.375 -24.515625 L 18.21875 -24.515625 L 18.21875 -20.90625 L 6.859375 -20.90625 L 6.859375 -14.046875 L 16.046875 -14.046875 L 16.046875 -10.515625 L 6.859375 -10.515625 L 6.859375 0 Z M 2.375 0 "/></g></g></g><g fill="#ffe6e8" fill-opacity="1"><g transform="translate(159.188115, 195.621638)"><g><path d="M 8.265625 0.421875 C 6.773438 0.421875 5.550781 0.179688 4.59375 -0.296875 C 3.632812 -0.773438 2.921875 -1.410156 2.453125 -2.203125 C 1.984375 -2.992188 1.75 -3.867188 1.75 -4.828125 C 1.75 -6.441406 2.378906 -7.75 3.640625 -8.75 C 4.898438 -9.757812 6.789062 -10.265625 9.3125 -10.265625 L 13.734375 -10.265625 L 13.734375 -10.6875 C 13.734375 -11.875 13.394531 -12.75 12.71875 -13.3125 C 12.039062 -13.875 11.195312 -14.15625 10.1875 -14.15625 C 9.28125 -14.15625 8.488281 -13.9375 7.8125 -13.5 C 7.132812 -13.070312 6.710938 -12.4375 6.546875 -11.59375 L 2.171875 -11.59375 C 2.285156 -12.851562 2.707031 -13.953125 3.4375 -14.890625 C 4.175781 -15.828125 5.128906 -16.546875 6.296875 -17.046875 C 7.472656 -17.546875 8.785156 -17.796875 10.234375 -17.796875 C 12.703125 -17.796875 14.648438 -17.175781 16.078125 -15.9375 C 17.503906 -14.695312 18.21875 -12.945312 18.21875 -10.6875 L 18.21875 0 L 14.390625 0 L 13.984375 -2.796875 C 13.460938 -1.867188 12.738281 -1.097656 11.8125 -0.484375 C 10.894531 0.117188 9.710938 0.421875 8.265625 0.421875 Z M 9.28125 -3.078125 C 10.5625 -3.078125 11.554688 -3.5 12.265625 -4.34375 C 12.984375 -5.1875 13.4375 -6.226562 13.625 -7.46875 L 9.8125 -7.46875 C 8.613281 -7.46875 7.757812 -7.25 7.25 -6.8125 C 6.738281 -6.382812 6.484375 -5.851562 6.484375 -5.21875 C 6.484375 -4.539062 6.738281 -4.015625 7.25 -3.640625 C 7.757812 -3.265625 8.4375 -3.078125 9.28125 -3.078125 Z M 9.28125 -3.078125 "/></g></g></g><g fill="#ffe6e8" fill-opacity="1"><g transform="translate(179.392177, 195.621638)"><g><path d="M 12.578125 0.421875 C 11.265625 0.421875 10.117188 0.175781 9.140625 -0.3125 C 8.160156 -0.800781 7.367188 -1.488281 6.765625 -2.375 L 6.265625 0 L 2.28125 0 L 2.28125 -25.21875 L 6.765625 -25.21875 L 6.765625 -14.890625 C 7.328125 -15.660156 8.066406 -16.335938 8.984375 -16.921875 C 9.910156 -17.503906 11.109375 -17.796875 12.578125 -17.796875 C 14.210938 -17.796875 15.671875 -17.394531 16.953125 -16.59375 C 18.234375 -15.800781 19.25 -14.71875 20 -13.34375 C 20.75 -11.96875 21.125 -10.40625 21.125 -8.65625 C 21.125 -6.90625 20.75 -5.34375 20 -3.96875 C 19.25 -2.601562 18.234375 -1.53125 16.953125 -0.75 C 15.671875 0.03125 14.210938 0.421875 12.578125 0.421875 Z M 11.625 -3.5 C 13.050781 -3.5 14.226562 -3.976562 15.15625 -4.9375 C 16.09375 -5.894531 16.5625 -7.132812 16.5625 -8.65625 C 16.5625 -10.175781 16.09375 -11.425781 15.15625 -12.40625 C 14.226562 -13.382812 13.050781 -13.875 11.625 -13.875 C 10.175781 -13.875 8.988281 -13.390625 8.0625 -12.421875 C 7.144531 -11.453125 6.6875 -10.207031 6.6875 -8.6875 C 6.6875 -7.164062 7.144531 -5.921875 8.0625 -4.953125 C 8.988281 -3.984375 10.175781 -3.5 11.625 -3.5 Z M 11.625 -3.5 "/></g></g></g><g fill="#ffe6e8" fill-opacity="1"><g transform="translate(202.222417, 195.621638)"><g><path d="M 2.375 0 L 2.375 -24.515625 L 18.21875 -24.515625 L 18.21875 -20.90625 L 6.859375 -20.90625 L 6.859375 -14.046875 L 16.046875 -14.046875 L 16.046875 -10.515625 L 6.859375 -10.515625 L 6.859375 0 Z M 2.375 0 "/></g></g></g><g fill="#ffe6e8" fill-opacity="1"><g transform="translate(221.516068, 195.621638)"><g><path d="M 2.28125 0 L 2.28125 -25.21875 L 6.765625 -25.21875 L 6.765625 0 Z M 2.28125 0 "/></g></g></g><g fill="#ffe6e8" fill-opacity="1"><g transform="translate(230.585132, 195.621638)"><g><path d="M 4.6875 -20.078125 C 3.875 -20.078125 3.203125 -20.320312 2.671875 -20.8125 C 2.148438 -21.300781 1.890625 -21.921875 1.890625 -22.671875 C 1.890625 -23.410156 2.148438 -24.019531 2.671875 -24.5 C 3.203125 -24.976562 3.875 -25.21875 4.6875 -25.21875 C 5.507812 -25.21875 6.179688 -24.976562 6.703125 -24.5 C 7.234375 -24.019531 7.5 -23.410156 7.5 -22.671875 C 7.5 -21.921875 7.234375 -21.300781 6.703125 -20.8125 C 6.179688 -20.320312 5.507812 -20.078125 4.6875 -20.078125 Z M 2.453125 0 L 2.453125 -17.375 L 6.9375 -17.375 L 6.9375 0 Z M 2.453125 0 "/></g></g></g><g fill="#ffe6e8" fill-opacity="1"><g transform="translate(239.934325, 195.621638)"><g><path d="M 0.625 0 L 6.9375 -8.6875 L 0.625 -17.375 L 5.4375 -17.375 L 9.84375 -11.203125 L 14.21875 -17.375 L 19.0625 -17.375 L 12.71875 -8.6875 L 19.0625 0 L 14.21875 0 L 9.84375 -6.171875 L 5.4375 0 Z M 0.625 0 "/></g></g></g><g clip-path="url(#f9d70b9efd)"><path fill="#d60e0a" d="M 90.417969 206.695312 L 107.628906 176.414062 L 139.894531 167.988281 L 130.605469 167.988281 C 126.75 164.308594 121.527344 162.046875 115.773438 162.046875 C 103.90625 162.046875 94.285156 171.667969 94.285156 183.535156 C 94.285156 185.265625 94.492188 186.949219 94.878906 188.5625 L 90.417969 206.695312 " fill-opacity="1" fill-rule="nonzero"/></g><path fill="#ffe6e8" d="M 129.730469 178.304688 L 115.09375 182.042969 L 112.816406 186.058594 L 125.3125 182.792969 L 115.152344 193.109375 L 107.742188 195 L 104.035156 201.535156 C 107.410156 203.742188 111.441406 205.023438 115.773438 205.023438 C 127.640625 205.023438 137.261719 195.402344 137.261719 183.535156 C 137.261719 179.828125 136.320312 176.339844 134.667969 173.296875 L 129.730469 178.304688 " fill-opacity="1" fill-rule="nonzero"/></svg>